<?xml version="1.0" encoding="UTF-8"?><svg width="62px" height="20px" viewBox="0 0 62 20" version="1.1" xmlns="http://www.w3.org/2000/svg" xmlns:xlink="http://www.w3.org/1999/xlink"><!--Generator: Sketch 57.1 (83088) - https://sketch.com--><title>justwatch</title><desc>Created with Sketch.</desc><g id="justwatch" stroke="none" stroke-width="1" fill="none" fill-rule="evenodd"><path d="M0.455262937,11.033211 L1.90961437,11.7603867 C1.96141278,11.7862859 1.98240823,11.8492723 1.95650903,11.9010707 C1.94636242,11.9213639 1.92990759,11.9378187 1.90961437,11.9479653 L0.151754313,12.8268954 C0.0999558989,12.8527946 0.0369695347,12.8317991 0.0110703274,12.7800007 C0.00379016211,12.7654404 0,12.749385 0,12.7331061 L0,11.314579 C0,11.1408418 0.140841795,11 0.314578953,11 C0.363415792,11 0.411581939,11.0113705 0.455262937,11.033211 Z M2.24894733,11.9300532 L4.00680738,12.8089832 C4.0586058,12.8348824 4.07960125,12.8978688 4.05370204,12.9496672 C4.04355544,12.9699604 4.0271006,12.9864152 4.00680738,12.9965619 L2.24894733,13.8754919 C2.19714892,13.9013911 2.13416255,13.8803956 2.10826335,13.8285972 C2.10098318,13.8140369 2.09719301,13.7979815 2.09719301,13.7817026 L2.09719301,12.0238425 C2.09719301,11.9659301 2.14414028,11.9189829 2.20205266,11.9189829 C2.21833161,11.9189829 2.23438699,11.922773 2.24894733,11.9300532 Z M4.34614034,12.9786497 L6.1040004,13.8575797 C6.15579881,13.8834789 6.17679426,13.9464653 6.15089506,13.9982637 C6.14074845,14.0185569 6.12429361,14.0350117 6.1040004,14.0451584 L4.34614034,14.9240884 C4.29434193,14.9499876 4.23135557,14.9289921 4.20545636,14.8771937 C4.19817619,14.8626334 4.19438603,14.846578 4.19438603,14.8302991 L4.19438603,13.072439 C4.19438603,13.0145266 4.24133329,12.9675794 4.29924568,12.9675794 C4.31552463,12.9675794 4.33158001,12.9713695 4.34614034,12.9786497 Z M6.44333336,14.0272462 L7.82603613,14.7185976 C7.98143136,14.7962952 8.04441773,14.9852543 7.9667201,15.1406495 C7.93628028,15.2015292 7.88691577,15.2508937 7.82603613,15.2813335 L6.44333336,15.9726849 C6.39153495,15.9985841 6.32854858,15.9775886 6.30264937,15.9257902 C6.29536921,15.9112299 6.29157904,15.8951745 6.29157904,15.8788956 L6.29157904,14.1210355 C6.29157904,14.0631231 6.33852631,14.0161759 6.39643869,14.0161759 C6.41271764,14.0161759 6.42877302,14.019966 6.44333336,14.0272462 Z M0.151754313,15.0758427 L1.90961437,15.9547727 C1.96141278,15.9806719 1.98240823,16.0436583 1.95650903,16.0954567 C1.94636242,16.1157499 1.92990759,16.1322048 1.90961437,16.1423514 L0.151754313,17.0212814 C0.0999558989,17.0471806 0.0369695347,17.0261852 0.0110703274,16.9743867 C0.00379016211,16.9598264 0,16.943771 0,16.9274921 L0,15.169632 C0,15.1117196 0.0469472653,15.0647724 0.104859651,15.0647724 C0.121138597,15.0647724 0.13719398,15.0685625 0.151754313,15.0758427 Z M2.24894733,16.1244392 L4.00680738,17.0033692 C4.0586058,17.0292684 4.07960125,17.0922548 4.05370204,17.1440532 C4.04355544,17.1643464 4.0271006,17.1808013 4.00680738,17.1909479 L2.24894733,18.0698779 C2.19714892,18.0957771 2.13416255,18.0747817 2.10826335,18.0229833 C2.10098318,18.0084229 2.09719301,17.9923675 2.09719301,17.9760886 L2.09719301,16.2182285 C2.09719301,16.1603161 2.14414028,16.1133689 2.20205266,16.1133689 C2.21833161,16.1133689 2.23438699,16.117159 2.24894733,16.1244392 Z M0.151754313,12.9786497 L1.90961437,13.8575797 C1.96141278,13.8834789 1.98240823,13.9464653 1.95650903,13.9982637 C1.94636242,14.0185569 1.92990759,14.0350117 1.90961437,14.0451584 L0.151754313,14.9240884 C0.0999558989,14.9499876 0.0369695347,14.9289921 0.0110703274,14.8771937 C0.00379016211,14.8626334 0,14.846578 0,14.8302991 L0,13.072439 C0,13.0145266 0.0469472653,12.9675794 0.104859651,12.9675794 C0.121138597,12.9675794 0.13719398,12.9713695 0.151754313,12.9786497 Z M2.24894733,14.0272462 L4.00680738,14.9061762 C4.0586058,14.9320754 4.07960125,14.9950618 4.05370204,15.0468602 C4.04355544,15.0671534 4.0271006,15.0836083 4.00680738,15.0937549 L2.24894733,15.9726849 C2.19714892,15.9985841 2.13416255,15.9775886 2.10826335,15.9257902 C2.10098318,15.9112299 2.09719301,15.8951745 2.09719301,15.8788956 L2.09719301,14.1210355 C2.09719301,14.0631231 2.14414028,14.0161759 2.20205266,14.0161759 C2.21833161,14.0161759 2.23438699,14.019966 2.24894733,14.0272462 Z M4.34614034,15.0758427 L6.1040004,15.9547727 C6.15579881,15.9806719 6.17679426,16.0436583 6.15089506,16.0954567 C6.14074845,16.1157499 6.12429361,16.1322048 6.1040004,16.1423514 L4.34614034,17.0212814 C4.29434193,17.0471806 4.23135557,17.0261852 4.20545636,16.9743867 C4.19817619,16.9598264 4.19438603,16.943771 4.19438603,16.9274921 L4.19438603,15.169632 C4.19438603,15.1117196 4.24133329,15.0647724 4.29924568,15.0647724 C4.31552463,15.0647724 4.33158001,15.0685625 4.34614034,15.0758427 Z M0.151754313,17.1730357 L1.90961437,18.0519657 C1.96141278,18.0778649 1.98240823,18.1408513 1.95650903,18.1926497 C1.94636242,18.2129429 1.92990759,18.2293978 1.90961437,18.2395444 L0.455262937,18.9667201 C0.299867698,19.0444177 0.110908603,18.9814314 0.0332109832,18.8260361 C0.0113704853,18.7823551 0,18.734189 0,18.6853521 L0,17.266825 C0,17.2089127 0.0469472653,17.1619654 0.104859651,17.1619654 C0.121138597,17.1619654 0.13719398,17.1657555 0.151754313,17.1730357 Z" id="Shape-Copy" fill="#F7CF3E" fill-rule="nonzero"/><g id="logo-2019-copy" transform="translate(8.000000, 10.000000)" fill="#F7CF3E" fill-rule="nonzero"><path d="M3.9413146,0.77478912 L5.09652436,0.77478912 L5.09652436,6.86370722 C5.09652436,7.40120334 5.01229115,7.84041932 4.84382223,8.18136835 C4.6753533,8.52231738 4.46477036,8.7910614 4.21206689,8.98760849 C3.95936342,9.18415558 3.68861397,9.32053314 3.39981003,9.39674528 C3.11100609,9.47295742 2.84627319,9.51106291 2.60560332,9.51106291 C2.00392857,9.51106291 1.49652374,9.35663537 1.0833738,9.04777567 C0.670223791,8.73891597 0.407496435,8.27162224 0.295183807,7.64588049 L1.42632669,7.39317836 C1.49050535,7.71407156 1.6228718,7.96677117 1.82343005,8.15128476 C2.0239883,8.33579835 2.28471005,8.42805377 2.60560332,8.42805377 C2.89440727,8.42805377 3.12504576,8.3718983 3.29752583,8.25958568 C3.4700059,8.14727305 3.60437792,8.00086773 3.70064591,7.8203653 C3.79691389,7.63986287 3.86109154,7.43329098 3.89318086,7.2006434 C3.92527019,6.96799582 3.9413146,6.73134064 3.9413146,6.49067073 L3.9413146,0.77478912 Z M11.3579217,9.29446108 L10.2749125,9.29446108 L10.2749125,8.41602033 L10.2508457,8.41602033 C10.1144661,8.72086887 9.87781087,8.96755183 9.54087301,9.15607658 C9.20393516,9.34460133 8.81485794,9.4388623 8.37362982,9.4388623 C8.09284834,9.4388623 7.82811527,9.3967457 7.57942311,9.31251124 C7.33073095,9.22827677 7.11212572,9.09791587 6.92360091,8.9214246 C6.73507609,8.74493333 6.58465966,8.51830592 6.4723471,8.24153552 C6.36003453,7.96476513 6.30387901,7.63786009 6.30387901,7.26081057 L6.30387901,3.59061291 L7.38688815,3.59061291 L7.38688815,6.9599747 C7.38688815,7.22471159 7.42298812,7.45133902 7.49518907,7.63986378 C7.56739001,7.82838853 7.66365649,7.98081051 7.78399151,8.0971343 C7.90432653,8.21345809 8.04270952,8.29769129 8.19914501,8.34983644 C8.3555805,8.40198159 8.51803021,8.42805377 8.68649913,8.42805377 C8.91112442,8.42805377 9.11970179,8.39195383 9.31223775,8.31975285 C9.50477371,8.24755187 9.67324013,8.13323539 9.81764202,7.97679995 C9.96204391,7.82036451 10.074355,7.62181483 10.1545782,7.38114492 C10.2348014,7.14047502 10.2749125,6.85568657 10.2749125,6.52677104 L10.2749125,3.59061291 L11.3579217,3.59061291 L11.3579217,9.29446108 Z M15.6926324,5.02259167 C15.5642751,4.86214507 15.4058365,4.72777305 15.2173117,4.6194716 C15.0287869,4.51117015 14.7981484,4.45702022 14.5253892,4.45702022 C14.2686746,4.45702022 14.0460584,4.51117015 13.8575336,4.6194716 C13.6690087,4.72777305 13.5747478,4.8862117 13.5747478,5.09479228 C13.5747478,5.2632612 13.6288978,5.39963878 13.7371992,5.50392907 C13.8455006,5.60821935 13.9738561,5.69245256 14.1222691,5.7566312 C14.2706822,5.82080984 14.4291209,5.86894309 14.5975898,5.90103242 C14.7660587,5.93312175 14.9104584,5.96119948 15.0307935,5.98526647 C15.263441,6.04142278 15.4820463,6.10961156 15.6866157,6.18983486 C15.8911851,6.27005816 16.0676738,6.3743469 16.2160868,6.50270417 C16.3644998,6.63106144 16.4808219,6.78749455 16.5650564,6.97200813 C16.649291,7.15652172 16.6914075,7.3811436 16.6914075,7.64588049 C16.6914075,7.9667737 16.6232187,8.24153439 16.4868391,8.47017079 C16.3504595,8.69880719 16.1739708,8.88532358 15.957368,9.02972552 C15.7407651,9.17412745 15.494082,9.27841619 15.2173117,9.34259482 C14.9405414,9.40677346 14.6617695,9.4388623 14.380988,9.4388623 C13.9076705,9.4388623 13.4925212,9.36666241 13.1355275,9.22226047 C12.7785337,9.07785854 12.4596509,8.81312561 12.1788694,8.42805377 L12.997143,7.75418141 C13.1736342,7.93067267 13.3701784,8.08710576 13.5867813,8.22348537 C13.8033841,8.35986499 14.0681172,8.42805377 14.380988,8.42805377 C14.5173676,8.42805377 14.6557507,8.41401489 14.7961415,8.38593674 C14.9365316,8.3578586 15.0608765,8.31373643 15.169178,8.25356896 C15.2774794,8.19340148 15.3657237,8.1171905 15.4339135,8.02493369 C15.5021033,7.93267689 15.5361977,7.82638262 15.5361977,7.70604767 C15.5361977,7.54560107 15.4860589,7.4132346 15.3857798,7.30894431 C15.2855007,7.20465403 15.1651675,7.12242637 15.0247767,7.0622589 C14.884386,7.00209142 14.7359751,6.95395817 14.5795396,6.91785768 C14.4231042,6.88175719 14.2847212,6.8516739 14.1643861,6.82760691 C13.9317386,6.7714506 13.7111278,6.70727293 13.5025472,6.63507195 C13.2939667,6.56287098 13.1094558,6.46660447 12.9490092,6.34626952 C12.7885626,6.22593456 12.6602073,6.07351257 12.5639393,5.88899899 C12.4676713,5.7044854 12.4195381,5.47585242 12.4195381,5.20309319 C12.4195381,4.90626698 12.4817101,4.64755071 12.6060563,4.42693664 C12.7304025,4.20632256 12.8948577,4.02381728 13.0994271,3.87941534 C13.3039965,3.73501341 13.5366406,3.62671358 13.7973664,3.5545126 C14.0580921,3.48231162 14.3208195,3.44621169 14.5855564,3.44621169 C14.9706283,3.44621169 15.3396498,3.51841158 15.6926324,3.66281352 C16.045615,3.80721545 16.3263923,4.04788175 16.5349728,4.38481961 L15.6926324,5.02259167 Z M21.0595444,4.52922083 L19.5072313,4.52922083 L19.5072313,7.11640935 C19.5072313,7.27685596 19.5112424,7.4352946 19.5192647,7.59173004 C19.527287,7.74816548 19.5573703,7.88855415 19.6095155,8.01290026 C19.6616607,8.13724637 19.7418828,8.23752399 19.8501842,8.31373613 C19.9584856,8.38994827 20.1169243,8.42805377 20.3255049,8.42805377 C20.4538622,8.42805377 20.5862286,8.41602045 20.7226082,8.39195346 C20.8589878,8.36788647 20.9833321,8.32376431 21.0956447,8.25958568 L21.0956447,9.24632734 C20.9672874,9.31852832 20.8008265,9.36866713 20.5962571,9.39674528 C20.3916877,9.42482343 20.233249,9.4388623 20.1209365,9.4388623 C19.7037754,9.4388623 19.3808814,9.38070129 19.1522449,9.2643775 C18.9236085,9.14805371 18.7551421,8.99763727 18.6468407,8.81312369 C18.5385393,8.6286101 18.4743616,8.42203819 18.4543057,8.19340178 C18.4342498,7.96476538 18.4242221,7.73412685 18.4242221,7.50147927 L18.4242221,4.52922083 L17.1727449,4.52922083 L17.1727449,3.59061291 L18.4242221,3.59061291 L18.4242221,1.99016605 L19.5072313,1.99016605 L19.5072313,3.59061291 L21.0595444,3.59061291 L21.0595444,4.52922083 Z M21.1477896,0.77478912 L22.3511331,0.77478912 L24.2283489,7.58571332 L24.2524158,7.58571332 L26.2619994,0.77478912 L27.5856773,0.77478912 L29.5952609,7.58571332 L29.6193278,7.58571332 L31.4965437,0.77478912 L32.6998872,0.77478912 L30.2209995,9.29446108 L29.0056226,9.29446108 L26.9358718,2.33913567 L26.9118049,2.33913567 L24.8540875,9.29446108 L23.6387106,9.29446108 L21.1477896,0.77478912 Z M32.4872965,4.28855213 C32.792145,4.00777058 33.1451222,3.79718757 33.5462387,3.6567968 C33.9473553,3.51640602 34.3484657,3.44621169 34.7495822,3.44621169 C35.1667433,3.44621169 35.5257373,3.49835605 35.8265747,3.60264634 C36.1274121,3.70693663 36.374095,3.8473253 36.5666309,4.02381656 C36.7591669,4.20030783 36.901561,4.40286863 36.9938179,4.63150503 C37.0860747,4.86014143 37.1322024,5.09880219 37.1322024,5.34749441 L37.1322024,8.25958568 C37.1322024,8.46014293 37.1362135,8.64465476 37.1442358,8.81312369 C37.1522581,8.98159261 37.1642915,9.14203681 37.1803361,9.29446108 L36.2176613,9.29446108 C36.1935943,9.00565721 36.181561,8.71685764 36.181561,8.42805377 L36.1574941,8.42805377 C35.9168243,8.79708094 35.6320358,9.05780276 35.3031203,9.21022704 C34.9742047,9.36265132 34.5931498,9.4388623 34.1599439,9.4388623 C33.895207,9.4388623 33.6425074,9.40276237 33.4018375,9.33056139 C33.1611677,9.25836041 32.9505846,9.15006058 32.7700822,9.00565865 C32.5895798,8.86125671 32.4471855,8.68276254 32.3428952,8.47017079 C32.238605,8.25757903 32.1864606,8.01089609 32.1864606,7.73011454 C32.1864606,7.36108736 32.2686882,7.05223227 32.433146,6.80354004 C32.5976038,6.55484782 32.8222256,6.35228702 33.1070184,6.19585158 C33.3918112,6.03941614 33.7247329,5.9271052 34.1057935,5.8589154 C34.4868541,5.7907256 34.8939813,5.7566312 35.3271871,5.7566312 L36.1213938,5.7566312 L36.1213938,5.5159625 C36.1213938,5.37156056 36.0933162,5.22716078 36.0371598,5.08275884 C35.9810034,4.9383569 35.8967702,4.807996 35.7844577,4.69167221 C35.6721451,4.57534842 35.5317564,4.483093 35.3632874,4.4149032 C35.1948193,4.3467134 34.9942633,4.312619 34.7616157,4.312619 C34.5530351,4.312619 34.3705299,4.33267453 34.2140944,4.37278618 C34.0576589,4.41289783 33.9152648,4.46303664 33.7869074,4.52320412 C33.6585501,4.58337159 33.5422281,4.65356593 33.4379378,4.73378923 C33.3336476,4.81401253 33.2333699,4.89022352 33.137102,4.96242449 L32.4872965,4.28855213 Z M35.543789,6.55083791 C35.2870743,6.55083791 35.0243457,6.56487678 34.755599,6.59295493 C34.4868509,6.62103308 34.2421736,6.675183 34.0215594,6.7554063 C33.8009453,6.83562961 33.6204456,6.94794055 33.4800549,7.09234248 C33.3396641,7.23674442 33.2694697,7.42125525 33.2694697,7.64588049 C33.2694697,7.97479602 33.3797751,8.21145122 33.6003892,8.35585316 C33.8210033,8.50025509 34.1198306,8.57245499 34.4968801,8.57245499 C34.7937063,8.57245499 35.046406,8.52231618 35.2549865,8.42203705 C35.4635671,8.32175792 35.6320335,8.19139701 35.7603908,8.03095041 C35.8887481,7.87050381 35.9810034,7.69200965 36.0371598,7.49546256 C36.0933162,7.29891546 36.1213938,7.10437689 36.1213938,6.91184096 L36.1213938,6.55083791 L35.543789,6.55083791 Z M41.5979438,4.52922083 L40.0456307,4.52922083 L40.0456307,7.11640935 C40.0456307,7.27685596 40.0496418,7.4352946 40.0576641,7.59173004 C40.0656864,7.74816548 40.0957697,7.88855415 40.1479149,8.01290026 C40.2000601,8.13724637 40.2802822,8.23752399 40.3885836,8.31373613 C40.496885,8.38994827 40.6553237,8.42805377 40.8639043,8.42805377 C40.9922616,8.42805377 41.124628,8.41602045 41.2610076,8.39195346 C41.3973872,8.36788647 41.5217315,8.32376431 41.6340441,8.25958568 L41.6340441,9.24632734 C41.5056868,9.31852832 41.3392259,9.36866713 41.1346565,9.39674528 C40.9300872,9.42482343 40.7716484,9.4388623 40.6593359,9.4388623 C40.2421748,9.4388623 39.9192808,9.38070129 39.6906444,9.2643775 C39.4620079,9.14805371 39.2935415,8.99763727 39.1852401,8.81312369 C39.0769387,8.6286101 39.012761,8.42203819 38.9927051,8.19340178 C38.9726492,7.96476538 38.9626215,7.73412685 38.9626215,7.50147927 L38.9626215,4.52922083 L37.7111443,4.52922083 L37.7111443,3.59061291 L38.9626215,3.59061291 L38.9626215,1.99016605 L40.0456307,1.99016605 L40.0456307,3.59061291 L41.5979438,3.59061291 L41.5979438,4.52922083 Z M46.5717636,5.10682571 C46.3712053,4.89824514 46.1606224,4.73980648 45.9400083,4.63150503 C45.7193941,4.52320358 45.4566668,4.46905366 45.1518183,4.46905366 C44.854992,4.46905366 44.5962758,4.52320358 44.3756617,4.63150503 C44.1550476,4.73980648 43.9705361,4.88821737 43.8221237,5.07674212 C43.6737107,5.26526688 43.5613996,5.48186655 43.4851875,5.72654761 C43.4089754,5.97122868 43.3708699,6.22593385 43.3708699,6.49067073 C43.3708699,6.75540762 43.414992,7.00610168 43.5032377,7.24276042 C43.5914834,7.47941916 43.7158275,7.68599106 43.8762742,7.86248232 C44.0367208,8.03897359 44.2292537,8.1773567 44.453879,8.27763583 C44.6785043,8.37791496 44.9312039,8.42805377 45.2119854,8.42805377 C45.516834,8.42805377 45.7775559,8.37390384 45.9941587,8.26560239 C46.2107615,8.15730094 46.4113168,7.99886229 46.5958305,7.79028171 L47.3659703,8.56042155 C47.0851888,8.87329243 46.7582837,9.09791429 46.3852453,9.23429391 C46.012207,9.37067352 45.6171131,9.4388623 45.199952,9.4388623 C44.7587239,9.4388623 44.3556078,9.36666241 43.9905918,9.22226047 C43.6255758,9.07785854 43.310704,8.87529774 43.0459671,8.61457201 C42.7812302,8.35384628 42.5766638,8.0409801 42.432262,7.67596408 C42.2878601,7.31094806 42.2156601,6.90783202 42.2156601,6.46660386 C42.2156601,6.02537571 42.2878601,5.62025411 42.432262,5.25122693 C42.5766638,4.88219975 42.7792247,4.56532246 43.0399504,4.30058557 C43.3006762,4.03584868 43.6135423,3.82927677 43.9785583,3.68086367 C44.3435744,3.53245057 44.7507016,3.45824512 45.199952,3.45824512 C45.6171131,3.45824512 46.0162182,3.53245057 46.3972788,3.68086367 C46.7783394,3.82927677 47.1092557,4.0559042 47.3900372,4.36075274 L46.5717636,5.10682571 Z M48.2925448,0.197184241 L49.3755539,0.197184241 L49.3755539,4.46905366 L49.3996208,4.46905366 C49.5360004,4.16420512 49.7726556,3.91752216 50.1095935,3.72899741 C50.4465313,3.54047266 50.8356085,3.44621169 51.2768367,3.44621169 C51.5495959,3.44621169 51.8123232,3.48832829 52.0650267,3.57256275 C52.3177301,3.65679722 52.5383408,3.78715812 52.7268656,3.96364939 C52.9153904,4.14014065 53.0658068,4.36676807 53.1781194,4.64353847 C53.290432,4.92030886 53.3465875,5.2472139 53.3465875,5.62426342 L53.3465875,9.29446108 L52.2635783,9.29446108 L52.2635783,5.92509929 C52.2635783,5.6603624 52.2274784,5.43373497 52.1552774,5.24521021 C52.0830765,5.05668546 51.98681,4.90426348 51.866475,4.78793969 C51.74614,4.6716159 51.607757,4.5873827 51.4513215,4.53523755 C51.294886,4.4830924 51.1324363,4.45702022 50.9639674,4.45702022 C50.7393421,4.45702022 50.5307647,4.49312016 50.3382287,4.56532114 C50.1456928,4.63752212 49.9772264,4.7518386 49.8328245,4.90827404 C49.6884226,5.06470948 49.5761115,5.26325916 49.4958883,5.50392907 C49.4156651,5.74459897 49.3755539,6.02938742 49.3755539,6.35830295 L49.3755539,9.29446108 L48.2925448,9.29446108 L48.2925448,0.197184241 Z" id="JustWatch"/></g><path d="M0.455262937,1.03321098 L1.90961437,1.7603867 C1.96141278,1.78628591 1.98240823,1.84927227 1.95650903,1.90107068 C1.94636242,1.92136389 1.92990759,1.93781874 1.90961437,1.94796535 L0.151754313,2.82689538 C0.0999558989,2.85279458 0.0369695347,2.83179913 0.0110703274,2.78000072 C0.00379016211,2.76544038 0,2.749385 0,2.73310605 L0,1.31457895 C0,1.14084179 0.140841795,1 0.314578953,1 C0.363415792,1 0.411581939,1.01137049 0.455262937,1.03321098 Z M2.24894733,1.93005318 L4.00680738,2.80898321 C4.0586058,2.83488241 4.07960125,2.89786878 4.05370204,2.94966719 C4.04355544,2.96996041 4.0271006,2.98641524 4.00680738,2.99656185 L2.24894733,3.87549188 C2.19714892,3.90139108 2.13416255,3.88039563 2.10826335,3.82859722 C2.10098318,3.81403688 2.09719301,3.79798151 2.09719301,3.78170256 L2.09719301,2.02384251 C2.09719301,1.96593012 2.14414028,1.91898285 2.20205266,1.91898285 C2.21833161,1.91898285 2.23438699,1.92277301 2.24894733,1.93005318 Z M4.34614034,2.97864968 L6.1040004,3.85757972 C6.15579881,3.88347892 6.17679426,3.94646528 6.15089506,3.99826369 C6.14074845,4.01855692 6.12429361,4.03501175 6.1040004,4.04515836 L4.34614034,4.92408839 C4.29434193,4.9499876 4.23135557,4.92899214 4.20545636,4.87719373 C4.19817619,4.8626334 4.19438603,4.84657801 4.19438603,4.83029906 L4.19438603,3.07243901 C4.19438603,3.01452662 4.24133329,2.96757936 4.29924568,2.96757936 C4.31552463,2.96757936 4.33158001,2.97136952 4.34614034,2.97864968 Z M6.44333336,4.02724619 L7.82603613,4.71859758 C7.98143136,4.7962952 8.04441773,4.98525429 7.9667201,5.14064953 C7.93628028,5.20152918 7.88691577,5.25089369 7.82603613,5.28133352 L6.44333336,5.97268489 C6.39153495,5.99858411 6.32854858,5.97758864 6.30264937,5.92579023 C6.29536921,5.91122991 6.29157904,5.89517452 6.29157904,5.87889557 L6.29157904,4.12103552 C6.29157904,4.06312313 6.33852631,4.01617586 6.39643869,4.01617586 C6.41271764,4.01617586 6.42877302,4.01996603 6.44333336,4.02724619 Z M0.151754313,5.07584271 L1.90961437,5.95477273 C1.96141278,5.98067194 1.98240823,6.04365831 1.95650903,6.09545672 C1.94636242,6.11574993 1.92990759,6.13220477 1.90961437,6.14235138 L0.151754313,7.0212814 C0.0999558989,7.04718061 0.0369695347,7.02618516 0.0110703274,6.97438674 C0.00379016211,6.95982641 0,6.94377103 0,6.92749208 L0,5.16963202 C0,5.11171964 0.0469472653,5.06477237 0.104859651,5.06477237 C0.121138597,5.06477237 0.13719398,5.06856254 0.151754313,5.07584271 Z M2.24894733,6.12443921 L4.00680738,7.00336923 C4.0586058,7.02926844 4.07960125,7.09225481 4.05370204,7.14405322 C4.04355544,7.16434643 4.0271006,7.18080127 4.00680738,7.19094788 L2.24894733,8.06987792 C2.19714892,8.09577712 2.13416255,8.07478166 2.10826335,8.02298325 C2.10098318,8.00842292 2.09719301,7.99236754 2.09719301,7.97608859 L2.09719301,6.21822853 C2.09719301,6.16031615 2.14414028,6.11336888 2.20205266,6.11336888 C2.21833161,6.11336888 2.23438699,6.11715904 2.24894733,6.12443921 Z M0.151754313,2.97864968 L1.90961437,3.85757972 C1.96141278,3.88347892 1.98240823,3.94646528 1.95650903,3.99826369 C1.94636242,4.01855692 1.92990759,4.03501175 1.90961437,4.04515836 L0.151754313,4.92408839 C0.0999558989,4.9499876 0.0369695347,4.92899214 0.0110703274,4.87719373 C0.00379016211,4.8626334 0,4.84657801 0,4.83029906 L0,3.07243901 C0,3.01452662 0.0469472653,2.96757936 0.104859651,2.96757936 C0.121138597,2.96757936 0.13719398,2.97136952 0.151754313,2.97864968 Z M2.24894733,4.02724619 L4.00680738,4.90617622 C4.0586058,4.93207543 4.07960125,4.99506179 4.05370204,5.04686021 C4.04355544,5.06715342 4.0271006,5.08360826 4.00680738,5.09375486 L2.24894733,5.97268489 C2.19714892,5.99858411 2.13416255,5.97758864 2.10826335,5.92579023 C2.10098318,5.91122991 2.09719301,5.89517452 2.09719301,5.87889557 L2.09719301,4.12103552 C2.09719301,4.06312313 2.14414028,4.01617586 2.20205266,4.01617586 C2.21833161,4.01617586 2.23438699,4.01996603 2.24894733,4.02724619 Z M4.34614034,5.07584271 L6.1040004,5.95477273 C6.15579881,5.98067194 6.17679426,6.04365831 6.15089506,6.09545672 C6.14074845,6.11574993 6.12429361,6.13220477 6.1040004,6.14235138 L4.34614034,7.0212814 C4.29434193,7.04718061 4.23135557,7.02618516 4.20545636,6.97438674 C4.19817619,6.95982641 4.19438603,6.94377103 4.19438603,6.92749208 L4.19438603,5.16963202 C4.19438603,5.11171964 4.24133329,5.06477237 4.29924568,5.06477237 C4.31552463,5.06477237 4.33158001,5.06856254 4.34614034,5.07584271 Z M0.151754313,7.17303572 L1.90961437,8.05196575 C1.96141278,8.07786495 1.98240823,8.14085132 1.95650903,8.19264973 C1.94636242,8.21294295 1.92990759,8.22939778 1.90961437,8.23954439 L0.455262937,8.9667201 C0.299867698,9.04441773 0.110908603,8.98143136 0.0332109832,8.82603613 C0.0113704853,8.78235513 0,8.73418898 0,8.68535214 L0,7.26682504 C0,7.20891265 0.0469472653,7.16196539 0.104859651,7.16196539 C0.121138597,7.16196539 0.13719398,7.16575555 0.151754313,7.17303572 Z" id="Shape-Copy-2" fill="#667788" fill-rule="nonzero"/><g id="logo-2019-copy-2" transform="translate(8.000000, 0.000000)" fill="#667788" fill-rule="nonzero"><path d="M3.9413146,0.77478912 L5.09652436,0.77478912 L5.09652436,6.86370722 C5.09652436,7.40120334 5.01229115,7.84041932 4.84382223,8.18136835 C4.6753533,8.52231738 4.46477036,8.7910614 4.21206689,8.98760849 C3.95936342,9.18415558 3.68861397,9.32053314 3.39981003,9.39674528 C3.11100609,9.47295742 2.84627319,9.51106291 2.60560332,9.51106291 C2.00392857,9.51106291 1.49652374,9.35663537 1.0833738,9.04777567 C0.670223791,8.73891597 0.407496435,8.27162224 0.295183807,7.64588049 L1.42632669,7.39317836 C1.49050535,7.71407156 1.6228718,7.96677117 1.82343005,8.15128476 C2.0239883,8.33579835 2.28471005,8.42805377 2.60560332,8.42805377 C2.89440727,8.42805377 3.12504576,8.3718983 3.29752583,8.25958568 C3.4700059,8.14727305 3.60437792,8.00086773 3.70064591,7.8203653 C3.79691389,7.63986287 3.86109154,7.43329098 3.89318086,7.2006434 C3.92527019,6.96799582 3.9413146,6.73134064 3.9413146,6.49067073 L3.9413146,0.77478912 Z M11.3579217,9.29446108 L10.2749125,9.29446108 L10.2749125,8.41602033 L10.2508457,8.41602033 C10.1144661,8.72086887 9.87781087,8.96755183 9.54087301,9.15607658 C9.20393516,9.34460133 8.81485794,9.4388623 8.37362982,9.4388623 C8.09284834,9.4388623 7.82811527,9.3967457 7.57942311,9.31251124 C7.33073095,9.22827677 7.11212572,9.09791587 6.92360091,8.9214246 C6.73507609,8.74493333 6.58465966,8.51830592 6.4723471,8.24153552 C6.36003453,7.96476513 6.30387901,7.63786009 6.30387901,7.26081057 L6.30387901,3.59061291 L7.38688815,3.59061291 L7.38688815,6.9599747 C7.38688815,7.22471159 7.42298812,7.45133902 7.49518907,7.63986378 C7.56739001,7.82838853 7.66365649,7.98081051 7.78399151,8.0971343 C7.90432653,8.21345809 8.04270952,8.29769129 8.19914501,8.34983644 C8.3555805,8.40198159 8.51803021,8.42805377 8.68649913,8.42805377 C8.91112442,8.42805377 9.11970179,8.39195383 9.31223775,8.31975285 C9.50477371,8.24755187 9.67324013,8.13323539 9.81764202,7.97679995 C9.96204391,7.82036451 10.074355,7.62181483 10.1545782,7.38114492 C10.2348014,7.14047502 10.2749125,6.85568657 10.2749125,6.52677104 L10.2749125,3.59061291 L11.3579217,3.59061291 L11.3579217,9.29446108 Z M15.6926324,5.02259167 C15.5642751,4.86214507 15.4058365,4.72777305 15.2173117,4.6194716 C15.0287869,4.51117015 14.7981484,4.45702022 14.5253892,4.45702022 C14.2686746,4.45702022 14.0460584,4.51117015 13.8575336,4.6194716 C13.6690087,4.72777305 13.5747478,4.8862117 13.5747478,5.09479228 C13.5747478,5.2632612 13.6288978,5.39963878 13.7371992,5.50392907 C13.8455006,5.60821935 13.9738561,5.69245256 14.1222691,5.7566312 C14.2706822,5.82080984 14.4291209,5.86894309 14.5975898,5.90103242 C14.7660587,5.93312175 14.9104584,5.96119948 15.0307935,5.98526647 C15.263441,6.04142278 15.4820463,6.10961156 15.6866157,6.18983486 C15.8911851,6.27005816 16.0676738,6.3743469 16.2160868,6.50270417 C16.3644998,6.63106144 16.4808219,6.78749455 16.5650564,6.97200813 C16.649291,7.15652172 16.6914075,7.3811436 16.6914075,7.64588049 C16.6914075,7.9667737 16.6232187,8.24153439 16.4868391,8.47017079 C16.3504595,8.69880719 16.1739708,8.88532358 15.957368,9.02972552 C15.7407651,9.17412745 15.494082,9.27841619 15.2173117,9.34259482 C14.9405414,9.40677346 14.6617695,9.4388623 14.380988,9.4388623 C13.9076705,9.4388623 13.4925212,9.36666241 13.1355275,9.22226047 C12.7785337,9.07785854 12.4596509,8.81312561 12.1788694,8.42805377 L12.997143,7.75418141 C13.1736342,7.93067267 13.3701784,8.08710576 13.5867813,8.22348537 C13.8033841,8.35986499 14.0681172,8.42805377 14.380988,8.42805377 C14.5173676,8.42805377 14.6557507,8.41401489 14.7961415,8.38593674 C14.9365316,8.3578586 15.0608765,8.31373643 15.169178,8.25356896 C15.2774794,8.19340148 15.3657237,8.1171905 15.4339135,8.02493369 C15.5021033,7.93267689 15.5361977,7.82638262 15.5361977,7.70604767 C15.5361977,7.54560107 15.4860589,7.4132346 15.3857798,7.30894431 C15.2855007,7.20465403 15.1651675,7.12242637 15.0247767,7.0622589 C14.884386,7.00209142 14.7359751,6.95395817 14.5795396,6.91785768 C14.4231042,6.88175719 14.2847212,6.8516739 14.1643861,6.82760691 C13.9317386,6.7714506 13.7111278,6.70727293 13.5025472,6.63507195 C13.2939667,6.56287098 13.1094558,6.46660447 12.9490092,6.34626952 C12.7885626,6.22593456 12.6602073,6.07351257 12.5639393,5.88899899 C12.4676713,5.7044854 12.4195381,5.47585242 12.4195381,5.20309319 C12.4195381,4.90626698 12.4817101,4.64755071 12.6060563,4.42693664 C12.7304025,4.20632256 12.8948577,4.02381728 13.0994271,3.87941534 C13.3039965,3.73501341 13.5366406,3.62671358 13.7973664,3.5545126 C14.0580921,3.48231162 14.3208195,3.44621169 14.5855564,3.44621169 C14.9706283,3.44621169 15.3396498,3.51841158 15.6926324,3.66281352 C16.045615,3.80721545 16.3263923,4.04788175 16.5349728,4.38481961 L15.6926324,5.02259167 Z M21.0595444,4.52922083 L19.5072313,4.52922083 L19.5072313,7.11640935 C19.5072313,7.27685596 19.5112424,7.4352946 19.5192647,7.59173004 C19.527287,7.74816548 19.5573703,7.88855415 19.6095155,8.01290026 C19.6616607,8.13724637 19.7418828,8.23752399 19.8501842,8.31373613 C19.9584856,8.38994827 20.1169243,8.42805377 20.3255049,8.42805377 C20.4538622,8.42805377 20.5862286,8.41602045 20.7226082,8.39195346 C20.8589878,8.36788647 20.9833321,8.32376431 21.0956447,8.25958568 L21.0956447,9.24632734 C20.9672874,9.31852832 20.8008265,9.36866713 20.5962571,9.39674528 C20.3916877,9.42482343 20.233249,9.4388623 20.1209365,9.4388623 C19.7037754,9.4388623 19.3808814,9.38070129 19.1522449,9.2643775 C18.9236085,9.14805371 18.7551421,8.99763727 18.6468407,8.81312369 C18.5385393,8.6286101 18.4743616,8.42203819 18.4543057,8.19340178 C18.4342498,7.96476538 18.4242221,7.73412685 18.4242221,7.50147927 L18.4242221,4.52922083 L17.1727449,4.52922083 L17.1727449,3.59061291 L18.4242221,3.59061291 L18.4242221,1.99016605 L19.5072313,1.99016605 L19.5072313,3.59061291 L21.0595444,3.59061291 L21.0595444,4.52922083 Z M21.1477896,0.77478912 L22.3511331,0.77478912 L24.2283489,7.58571332 L24.2524158,7.58571332 L26.2619994,0.77478912 L27.5856773,0.77478912 L29.5952609,7.58571332 L29.6193278,7.58571332 L31.4965437,0.77478912 L32.6998872,0.77478912 L30.2209995,9.29446108 L29.0056226,9.29446108 L26.9358718,2.33913567 L26.9118049,2.33913567 L24.8540875,9.29446108 L23.6387106,9.29446108 L21.1477896,0.77478912 Z M32.4872965,4.28855213 C32.792145,4.00777058 33.1451222,3.79718757 33.5462387,3.6567968 C33.9473553,3.51640602 34.3484657,3.44621169 34.7495822,3.44621169 C35.1667433,3.44621169 35.5257373,3.49835605 35.8265747,3.60264634 C36.1274121,3.70693663 36.374095,3.8473253 36.5666309,4.02381656 C36.7591669,4.20030783 36.901561,4.40286863 36.9938179,4.63150503 C37.0860747,4.86014143 37.1322024,5.09880219 37.1322024,5.34749441 L37.1322024,8.25958568 C37.1322024,8.46014293 37.1362135,8.64465476 37.1442358,8.81312369 C37.1522581,8.98159261 37.1642915,9.14203681 37.1803361,9.29446108 L36.2176613,9.29446108 C36.1935943,9.00565721 36.181561,8.71685764 36.181561,8.42805377 L36.1574941,8.42805377 C35.9168243,8.79708094 35.6320358,9.05780276 35.3031203,9.21022704 C34.9742047,9.36265132 34.5931498,9.4388623 34.1599439,9.4388623 C33.895207,9.4388623 33.6425074,9.40276237 33.4018375,9.33056139 C33.1611677,9.25836041 32.9505846,9.15006058 32.7700822,9.00565865 C32.5895798,8.86125671 32.4471855,8.68276254 32.3428952,8.47017079 C32.238605,8.25757903 32.1864606,8.01089609 32.1864606,7.73011454 C32.1864606,7.36108736 32.2686882,7.05223227 32.433146,6.80354004 C32.5976038,6.55484782 32.8222256,6.35228702 33.1070184,6.19585158 C33.3918112,6.03941614 33.7247329,5.9271052 34.1057935,5.8589154 C34.4868541,5.7907256 34.8939813,5.7566312 35.3271871,5.7566312 L36.1213938,5.7566312 L36.1213938,5.5159625 C36.1213938,5.37156056 36.0933162,5.22716078 36.0371598,5.08275884 C35.9810034,4.9383569 35.8967702,4.807996 35.7844577,4.69167221 C35.6721451,4.57534842 35.5317564,4.483093 35.3632874,4.4149032 C35.1948193,4.3467134 34.9942633,4.312619 34.7616157,4.312619 C34.5530351,4.312619 34.3705299,4.33267453 34.2140944,4.37278618 C34.0576589,4.41289783 33.9152648,4.46303664 33.7869074,4.52320412 C33.6585501,4.58337159 33.5422281,4.65356593 33.4379378,4.73378923 C33.3336476,4.81401253 33.2333699,4.89022352 33.137102,4.96242449 L32.4872965,4.28855213 Z M35.543789,6.55083791 C35.2870743,6.55083791 35.0243457,6.56487678 34.755599,6.59295493 C34.4868509,6.62103308 34.2421736,6.675183 34.0215594,6.7554063 C33.8009453,6.83562961 33.6204456,6.94794055 33.4800549,7.09234248 C33.3396641,7.23674442 33.2694697,7.42125525 33.2694697,7.64588049 C33.2694697,7.97479602 33.3797751,8.21145122 33.6003892,8.35585316 C33.8210033,8.50025509 34.1198306,8.57245499 34.4968801,8.57245499 C34.7937063,8.57245499 35.046406,8.52231618 35.2549865,8.42203705 C35.4635671,8.32175792 35.6320335,8.19139701 35.7603908,8.03095041 C35.8887481,7.87050381 35.9810034,7.69200965 36.0371598,7.49546256 C36.0933162,7.29891546 36.1213938,7.10437689 36.1213938,6.91184096 L36.1213938,6.55083791 L35.543789,6.55083791 Z M41.5979438,4.52922083 L40.0456307,4.52922083 L40.0456307,7.11640935 C40.0456307,7.27685596 40.0496418,7.4352946 40.0576641,7.59173004 C40.0656864,7.74816548 40.0957697,7.88855415 40.1479149,8.01290026 C40.2000601,8.13724637 40.2802822,8.23752399 40.3885836,8.31373613 C40.496885,8.38994827 40.6553237,8.42805377 40.8639043,8.42805377 C40.9922616,8.42805377 41.124628,8.41602045 41.2610076,8.39195346 C41.3973872,8.36788647 41.5217315,8.32376431 41.6340441,8.25958568 L41.6340441,9.24632734 C41.5056868,9.31852832 41.3392259,9.36866713 41.1346565,9.39674528 C40.9300872,9.42482343 40.7716484,9.4388623 40.6593359,9.4388623 C40.2421748,9.4388623 39.9192808,9.38070129 39.6906444,9.2643775 C39.4620079,9.14805371 39.2935415,8.99763727 39.1852401,8.81312369 C39.0769387,8.6286101 39.012761,8.42203819 38.9927051,8.19340178 C38.9726492,7.96476538 38.9626215,7.73412685 38.9626215,7.50147927 L38.9626215,4.52922083 L37.7111443,4.52922083 L37.7111443,3.59061291 L38.9626215,3.59061291 L38.9626215,1.99016605 L40.0456307,1.99016605 L40.0456307,3.59061291 L41.5979438,3.59061291 L41.5979438,4.52922083 Z M46.5717636,5.10682571 C46.3712053,4.89824514 46.1606224,4.73980648 45.9400083,4.63150503 C45.7193941,4.52320358 45.4566668,4.46905366 45.1518183,4.46905366 C44.854992,4.46905366 44.5962758,4.52320358 44.3756617,4.63150503 C44.1550476,4.73980648 43.9705361,4.88821737 43.8221237,5.07674212 C43.6737107,5.26526688 43.5613996,5.48186655 43.4851875,5.72654761 C43.4089754,5.97122868 43.3708699,6.22593385 43.3708699,6.49067073 C43.3708699,6.75540762 43.414992,7.00610168 43.5032377,7.24276042 C43.5914834,7.47941916 43.7158275,7.68599106 43.8762742,7.86248232 C44.0367208,8.03897359 44.2292537,8.1773567 44.453879,8.27763583 C44.6785043,8.37791496 44.9312039,8.42805377 45.2119854,8.42805377 C45.516834,8.42805377 45.7775559,8.37390384 45.9941587,8.26560239 C46.2107615,8.15730094 46.4113168,7.99886229 46.5958305,7.79028171 L47.3659703,8.56042155 C47.0851888,8.87329243 46.7582837,9.09791429 46.3852453,9.23429391 C46.012207,9.37067352 45.6171131,9.4388623 45.199952,9.4388623 C44.7587239,9.4388623 44.3556078,9.36666241 43.9905918,9.22226047 C43.6255758,9.07785854 43.310704,8.87529774 43.0459671,8.61457201 C42.7812302,8.35384628 42.5766638,8.0409801 42.432262,7.67596408 C42.2878601,7.31094806 42.2156601,6.90783202 42.2156601,6.46660386 C42.2156601,6.02537571 42.2878601,5.62025411 42.432262,5.25122693 C42.5766638,4.88219975 42.7792247,4.56532246 43.0399504,4.30058557 C43.3006762,4.03584868 43.6135423,3.82927677 43.9785583,3.68086367 C44.3435744,3.53245057 44.7507016,3.45824512 45.199952,3.45824512 C45.6171131,3.45824512 46.0162182,3.53245057 46.3972788,3.68086367 C46.7783394,3.82927677 47.1092557,4.0559042 47.3900372,4.36075274 L46.5717636,5.10682571 Z M48.2925448,0.197184241 L49.3755539,0.197184241 L49.3755539,4.46905366 L49.3996208,4.46905366 C49.5360004,4.16420512 49.7726556,3.91752216 50.1095935,3.72899741 C50.4465313,3.54047266 50.8356085,3.44621169 51.2768367,3.44621169 C51.5495959,3.44621169 51.8123232,3.48832829 52.0650267,3.57256275 C52.3177301,3.65679722 52.5383408,3.78715812 52.7268656,3.96364939 C52.9153904,4.14014065 53.0658068,4.36676807 53.1781194,4.64353847 C53.290432,4.92030886 53.3465875,5.2472139 53.3465875,5.62426342 L53.3465875,9.29446108 L52.2635783,9.29446108 L52.2635783,5.92509929 C52.2635783,5.6603624 52.2274784,5.43373497 52.1552774,5.24521021 C52.0830765,5.05668546 51.98681,4.90426348 51.866475,4.78793969 C51.74614,4.6716159 51.607757,4.5873827 51.4513215,4.53523755 C51.294886,4.4830924 51.1324363,4.45702022 50.9639674,4.45702022 C50.7393421,4.45702022 50.5307647,4.49312016 50.3382287,4.56532114 C50.1456928,4.63752212 49.9772264,4.7518386 49.8328245,4.90827404 C49.6884226,5.06470948 49.5761115,5.26325916 49.4958883,5.50392907 C49.4156651,5.74459897 49.3755539,6.02938742 49.3755539,6.35830295 L49.3755539,9.29446108 L48.2925448,9.29446108 L48.2925448,0.197184241 Z" id="JustWatch"/></g></g></svg>