<svg xmlns="http://www.w3.org/2000/svg" width="18" height="18" viewBox="0 0 18 18"><path fill="#DDEEFF" fill-rule="evenodd" d="M9,18 C1.77943725,18 0,16.2205627 0,9 C0,1.77943725 1.77943725,0 9,0 C16.2205627,0 18,1.77943725 18,9 C18,16.2205627 16.2205627,18 9,18 Z M7.50702013,4.88648243 C7.35334348,4.7960844 7.17829278,4.74841664 7,4.74841664 C6.44771525,4.74841664 6,5.19613189 6,5.74841664 L6,12.2515834 C6,12.4298761 6.04766776,12.6049268 6.13806578,12.7586035 C6.41808527,13.2346366 7.030987,13.3935371 7.50702013,13.1135176 L13.0347118,9.86193422 C13.1812655,9.77572618 13.3034179,9.65357379 13.3896259,9.50702013 C13.6696454,9.030987 13.510745,8.41808527 13.0347118,8.13806578 L7.50702013,4.88648243 Z"/></svg>